<svg xmlns="http://www.w3.org/2000/svg" xmlns:xlink="http://www.w3.org/1999/xlink" version="1.1" x="0px" y="0px" viewBox="0 0 100 100" enable-background="new 0 0 100 100" xml:space="preserve"><path fill="#000000" d="M51.396,26.469c-1.167-1.833-0.833-3-0.833-3c2.206-2.205,3.903-2.67,3.5-6.167  c-0.439-3.809-7.661-5.715-7.665-0.667c-0.002,2.333-2.002-0.333-1.835,2.167s1.467,1.838,1.835,2.667  c1.699,3.816-1.502,5.833-1.502,5.833s-4.167-1.667-5.67-2.836c-0.735-0.574-1.015-2.249-0.979-4.327  c0.015-0.844,0.082-1.754,0.192-2.685c0.083-0.7,0.19-1.412,0.318-2.115c0.579-3.192,1.581-6.211,2.639-7.204  c2.667-2.5,2.667-2.5,2.667-2.5s0.834-3.833-3.833,1.167s-4.167,8.333-4.5,11c-0.222,1.776-0.444,5.179,0.984,7.746  c0.716,1.287,1.847,2.364,3.6,2.921c2.637,0.837,4.178,4.236,4.275,6.729c0.097,2.565-0.737,5.72-1.723,8.064  c2.29,0.922,4.957,1.169,7.364,1.707c2.036-0.63,5.105-0.969,6.776-2.278c-0.46,0.36-1.718-2.162-1.802-2.344  c-0.644-1.386-0.823-2.725-0.135-4.121c0.694-1.406,1.251-2.058,0.866-3.726c-0.262-1.131-0.677-2.148-0.435-3.35  c0.204-1.011,1.144-1.852,1.729-2.681c4.021-3.501,6.479-5.166,0-15.333s-7.688-3-4.854-3c2.834,0,5.833,9.667,5.667,12.667  S51.396,26.469,51.396,26.469"/><path fill="#000000" d="M41.696,43.302c-2.752,0.352-5.504,0.781-8.167,1.579c-1.636,0.49-3.76,1.049-5.069,2.205  c-4.865,4.294,12.427,7.112,14.467,7.362c4.392,0.539,8.856,0.217,13.205-0.53c4.421-0.76,8.665-1.825,12.639-3.983  c1.062-0.577,3.667-2.288,3.629-3.729c-0.044-1.698-2.615-2.246-3.887-2.572c-3.877-0.995-8.149-2.062-12.15-0.831"/><path fill="#000000" d="M42.927,54.448l0.748,4.354l2.061,14.444c0,0,0.793,9.247,0,14.64c-0.294,1.995-0.217,5.418,0.928,7.128  c1.506,2.243,0.788-1.049,1.816-2.881s-0.132-3.374-0.134-3.567c-0.015-1.996,0.887-3.614,1.061-5.557  c0.354-3.956-0.891-7.896-0.58-11.881c0.2-2.562,0.574-6.592,0.306-10.099c-0.184-2.432-0.382-4.847-0.945-7.226  c0.097,0.305,0.191,0.608,0.289,0.912"/><path fill="#000000" stroke="#231F20" stroke-width="0.25" stroke-miterlimit="10" d="M45.804,71.972"/><path fill="#000000" stroke="#231F20" stroke-width="0.25" stroke-miterlimit="10" d="M50.674,54.717"/><path fill="#000000" stroke="#231F20" stroke-width="0.25" stroke-miterlimit="10" d="M48.477,92.136"/><path fill="#000000" d="M55.935,53.586l-0.737,4.445l-2.038,14.745c0,0-0.784,9.44,0,14.945c0.291,2.036,0.215,5.53-0.917,7.276  c-1.488,2.29-0.777-1.071-1.793-2.941s0.13-3.444,0.132-3.642c0.015-2.037-0.876-3.689-1.048-5.672  c-0.349-4.039,0.88-8.062,0.573-12.129c-0.198-2.615-0.567-6.729-0.303-10.31c0.182-2.482,0.378-4.947,0.934-7.376  c-0.095,0.311-0.189,0.621-0.285,0.931"/><path fill="#000000" stroke="#231F20" stroke-width="0.25" stroke-miterlimit="10" d="M92.75,28.25"/></svg>